<?xml version="1.0" standalone="no"?>
<!DOCTYPE svg PUBLIC "-//W3C//DTD SVG 20010904//EN"
 "http://www.w3.org/TR/2001/REC-SVG-20010904/DTD/svg10.dtd">
<svg version="1.0" xmlns="http://www.w3.org/2000/svg"
 width="192.000000pt" height="193.000000pt" viewBox="0 0 192.000000 193.000000"
 preserveAspectRatio="xMidYMid meet">

<g transform="translate(0.000000,193.000000) scale(0.100000,-0.100000)"
fill="#000000" stroke="none">
<path d="M808 1845 c-85 -14 -158 -36 -233 -71 -83 -37 -81 -31 -25 -126 27
-47 50 -89 50 -92 0 -3 -20 -19 -44 -36 -57 -39 -134 -113 -173 -168 l-31 -42
-82 67 c-94 76 -81 81 -146 -53 -46 -95 -78 -212 -89 -328 l-7 -69 109 4 108
4 7 -77 c4 -43 21 -118 38 -167 16 -48 30 -91 30 -94 0 -3 -43 -22 -95 -43
l-95 -37 26 -46 c65 -112 163 -220 272 -299 51 -36 66 -42 73 -31 5 8 28 48
51 89 23 41 43 77 44 79 2 2 29 -9 61 -24 67 -31 191 -65 240 -65 31 0 33 -2
32 -32 0 -18 -6 -64 -13 -103 -12 -69 -12 -70 11 -77 32 -9 196 7 273 27 57
15 220 82 220 91 0 2 -22 41 -50 88 -27 47 -50 88 -50 93 0 4 19 20 43 36 61
39 144 121 189 186 l17 24 82 -68 c90 -75 81 -76 130 17 57 112 91 227 104
360 l7 67 -108 3 -109 3 -7 77 c-4 42 -19 109 -33 150 -40 112 -43 106 62 146
l93 35 -33 59 c-48 89 -142 194 -235 265 -45 35 -86 63 -90 63 -5 0 -28 -35
-52 -77 -62 -111 -55 -106 -110 -78 -61 31 -183 65 -233 65 -25 0 -40 5 -44
16 -5 14 11 143 23 187 5 15 -2 17 -63 16 -37 -1 -103 -7 -145 -14z m265 -290
c230 -41 420 -210 493 -440 21 -65 25 -100 25 -185 0 -183 -55 -313 -186 -446
-127 -128 -262 -184 -445 -184 -182 0 -317 56 -446 184 -128 129 -184 264
-184 446 0 197 76 361 224 488 72 61 197 120 286 137 97 17 138 17 233 0z"/>
</g>
</svg>
